<?xml version="1.0" encoding="UTF-8"?>
<svg width="256.09" height="203.52" fill="#cc0000" stroke="#cc0000" version="1.1" viewBox="0 0 61.704 49.039" xmlns="http://www.w3.org/2000/svg">
 <g id="SVGRepo_iconCarrier" transform="matrix(.32981 0 0 .32981 -.93502 -7.2671)" fill="#999" stroke="none">
  <g clip-rule="evenodd" fill="#999" fill-rule="evenodd">
   <path d="m89.764 129.75-47.093 5.064 9.297 9.07h66.67l-24.717-14.59zm0-37.569 64.857-17.311s9.449-0.68 18.822-21.921l-83.679 27.44-65.084 21.24s-5.594 1.814-7.786 3.326c0 0-1.512 0.908-1.512 3.023 0 0 0.151 1.588 1.285 2.723l2.797 2.797 35.527-9.223s-2.192-2.873 2.192-3.477zm0 33.864c0.075 0.756 0.68 1.438 0.68 1.438l-0.68 0.074-49.361 5.594-9.374-8.768 58.734-10.508 50.191-8.92c-8.238 16.178-24.869 16.178-24.869 16.178l-20.711 2.645c-3.477 0.076-4.459 0.982-4.611 1.891zm0-27.969 68.41-17.309c-8.088 18.293-24.34 18.897-24.34 18.897l-44.07 8.92-14.438 2.947c-6.955 0.152-3.931 3.705-3.931 3.705l-42.104 7.182-7.861-6.955zm0-36.963 95.623-39.081s-3.252 9.601-5.293 14.514c0 0-2.494 7.786-12.471 10.885l-77.859 27.516-67.503 23.735s-8.692 3.1-10.129 6.729c0 0-2.041 4.156 3.478 8.844l32.579 29.631h-12.774l-26.23-25.701s-5.896-4.838-6.35-11.717v-1.436c0.076-0.453 0.076-0.906 0.227-1.436 0 0 1.134-7.56 12.472-12.17zm-69.544 87.61h-16.931v4.158h3.854v12.623h-3.854v4.309h16.931v-4.309h-4.157v-4.006h12.473v4.006h-4.082v4.309h16.706v-4.309h-4.006v-12.623h4.006v-4.158h-16.782v4.158h4.158v4.156h-12.473v-4.156h4.157zm148.69 9.752h3.25l-3.25-4.914-0.379-0.453-2.947 5.367zm0-9.752h6.727l10.129 16.781h4.158v4.309h-18.219v-4.309h4.082l-1.738-2.494h-11.035l-1.361 2.494h4.006v4.309h-14.059v-4.309h4.309l6.953-12.623h-4.686v-4.158zm-32.429 16.554c4.006-0.453 6.35-1.965 6.35-5.896 0-4.535-2.645-5.971-6.35-6.35-0.68-0.076-1.361-0.076-2.115-0.076h-4.234v12.473h3.402c1.058 0 2.04-0.075 2.947-0.151zm0-16.554h2.721c6.955 0 12.172 3.25 12.172 10.658 0 8.541-4.914 10.281-14.893 10.432h-18.973v-4.309h4.082v-12.623h-4.082v-4.158zm-77.556 17.537c3.931-0.076 7.03-3.174 7.03-6.955 0-4.006-3.175-7.029-7.03-7.029h-0.076c-3.855 0-6.954 3.023-6.954 6.955 0 3.703 2.948 7.029 6.879 7.029zm0-18.596h0.227c9.902 0 16.403 3.705 16.403 11.34 0 7.029-5.972 11.715-16.63 11.715h-0.302c-10.356 0-16.555-4.006-16.555-11.564 0-7.257 6.123-11.491 16.857-11.491zm34.696 1.059h-16.705v4.158h4.006v12.623h-4.006v4.309h13.304v-4.309h-4.158v-10.809l11.717 15.117h12.926v-16.932h4.232v-4.158h-13.758v4.158h4.309v11.111z" fill="#999"/>
  </g>
 </g>
</svg>
