<?xml version="1.0" encoding="UTF-8"?>
<svg version="1.1" viewBox="0 0 1009.1 523.66" xmlns="http://www.w3.org/2000/svg">
 <g data-name="Layer 1">
  <g fill="#999">
   <path d="m151.78 449.77v41.36h26v10.62h-37.58v-52z"/>
   <path d="m192.25 486.9c0.52 3.56 3.94 6.46 9.95 6.46 2.9 0 6.91-0.67 9.51-2.9l6 6.69c-3.93 3.86-10.24 5.42-15.74 5.42-13.29 0-20.57-7.8-20.57-19.53 0-11.14 7.5-18.94 19.46-18.94 12.47 0 20.64 7.8 18.34 22.8zm17.38-7.8c-0.22-4-4.31-5.86-8.76-5.86s-7.58 2.22-8.62 5.86z"/>
   <path d="m237.11 449.84v51.91h-10.62v-51.91z"/>
   <path d="m274.68 465.07h10v36.68h-9.66l-0.59-4.6c-2.45 3.86-7.72 5.35-11.29 5.42-11 0.07-18.94-7.05-18.94-19.16s8.4-19.31 19.24-19.16c4.6 0 8.91 1.78 10.84 5.05zm-19.75 18.34c0 6.09 4.31 9.65 9.65 9.65a9.43 9.43 0 0 0 9.73-9.28c0-5.27-3.34-10.1-9.73-10.1-5.34 0-9.65 3.64-9.65 9.73z"/>
   <path d="m320.2 501.75v-19.38c0-5.64-2.45-8.54-7.57-8.54s-8.32 4.23-8.32 9v18.93h-10.54v-36.69h9.65l0.37 4.68a13.82 13.82 0 0 1 11.89-5.57c8.24 0 15.29 3.86 15.29 18.12v19.45z"/>
   <path d="m347.9 506.8c0.37 5.65 4.31 7.43 9.21 7.43s9.06-2.23 9.06-6.76c0-3.56-2.3-6.31-8.91-6.31-12 0-19.83-7.13-19.83-18.49 0-12.48 9.58-18.72 19.83-18.72 2.6 0 6.24 0.37 8.62 2l4-5.2 7.72 5.94-4.68 5.57a15.66 15.66 0 0 1 3.79 10.55 14.31 14.31 0 0 1-7.87 12.84c8.16 3.64 8.16 9.66 8.16 11.81 0 10.92-9.8 16.19-19.9 16.19-12.7 0-19.31-6.31-19.16-16.86zm-0.14-24.13c0 5.27 4.08 8.76 9.5 8.76 4.83 0 9.21-2.9 9.21-8.76a9 9 0 0 0-9.21-9.21c-5.42 0-9.5 3.27-9.5 9.21z"/>
   <path d="m428.48 503c-16.64 0-28.08-10.32-28.08-27.25s11.44-27.25 28.08-27.25 28.07 10.32 28.07 27.25-11.44 27.25-28.07 27.25zm0-44.11c-9.88 0-16.71 7.43-16.71 16.86 0 9.73 6.83 16.79 16.71 16.79 10.1 0 16.71-7.13 16.71-16.79 0-9.49-6.61-16.85-16.71-16.85z"/>
   <path d="m478.45 455v10.25h9.29v8.91h-9.36v13.84c0 3.87 2.15 4.91 4.16 4.91a11.49 11.49 0 0 0 4.46-0.91l2.45 8.92a22.77 22.77 0 0 1-7.72 1.63c-7.94 0.37-14-3.12-14-14.56v-13.79h-6.53v-8.91h6.53v-9.06z"/>
   <path d="m492.86 483.48c0-11.06 7.87-19.23 20-19.23s20.14 8.17 20.14 19.23-7.65 19.09-20.13 19.09-20.01-8.02-20.01-19.09zm29.33 0c0-4.6-2.82-9.65-9.28-9.65s-9.21 5.05-9.21 9.65 2.75 9.58 9.21 9.58 9.28-4.75 9.28-9.58z"/>
   <path d="m563.56 501.75v-19.68c0-4.82-1.93-8-6.31-8s-6.61 3.94-6.61 8.1v19.6h-10.7v-36.7h9.36l0.74 4.16c2.31-4 6.54-5 9.66-5 4 0 8.31 1.48 10.69 6.83 3.27-5 6.76-6.9 12.18-6.9 7.65 0 14.63 3.86 14.63 17.52v20.05h-10.77v-19.81c0-4.6-1.26-7.64-5.57-7.64s-6.76 3.63-6.76 7.79v19.68z"/>
   <path d="m603.58 483.48c0-11.06 7.88-19.23 20.06-19.23s20.12 8.17 20.12 19.23-7.65 19.09-20.12 19.09-20.06-8.02-20.06-19.09zm29.34 0c0-4.6-2.82-9.65-9.28-9.65s-9.21 5.05-9.21 9.65 2.74 9.58 9.21 9.58 9.28-4.75 9.28-9.58z"/>
   <path d="m664.78 455v10.25h9.28v8.91h-9.36v13.84c0 3.87 2.15 4.91 4.16 4.91a11.49 11.49 0 0 0 4.45-0.9l2.46 8.92a22.88 22.88 0 0 1-7.73 1.63c-7.94 0.37-14-3.12-14-14.56v-13.8h-6.53v-8.91h6.53v-9.06z"/>
   <path d="m692.77 455.34c0 8-12.18 8-12.18 0s12.18-8.02 12.18 0zm-11.43 9.66v36.76h10.66v-36.76z"/>
   <path d="m704.73 501.75v-27h-6.46v-9h6.46v-2.15c0-10.62 7.72-14.78 14.85-14.78a17.76 17.76 0 0 1 10.17 3.12l-3.64 7.5a10.33 10.33 0 0 0-5.27-1.48c-3.19 0-5.42 1.78-5.42 5.64v2.15h10.17v9h-10.17v27z"/>
   <path d="m784.78 483.56-0.78-16.34v-17.45h11.7v52h-10l-25.8-33.29 0.45 17.08v16.19h-11.73v-52h10z"/>
   <path d="m803 483.48c0-11.06 7.88-19.23 20.06-19.23s20.12 8.17 20.12 19.23-7.68 19.09-20.18 19.09-20-8.02-20-19.09zm29.34 0c0-4.6-2.82-9.65-9.28-9.65s-9.21 5.05-9.21 9.65 2.75 9.58 9.21 9.58 9.25-4.75 9.25-9.58z"/>
   <path d="m861.42 496.33c0 8-12.18 8-12.18 0s12.18-8.02 12.18 0z"/>
   <path d="m869 492.25h8.77v-28.07l-8.32 2.6v-10.1l19.23-6.91v42.48h8.17v9.5h-27.85z"/>
   <circle cx="189.21" cy="189.21" r="189.21"/>
  </g>
  <circle cx="504.57" cy="189.21" r="189.21" fill="#ccc"/>
  <circle cx="819.92" cy="189.21" r="189.21" fill="#999"/>
  <g fill="#fff">
   <path d="m545.83 186.76a30.59 30.59 0 0 0 13.4-25.91c0-26.12-18.28-41.71-48.9-41.71h-51.05a13.56 13.56 0 0 0-13.54 13.54v126.61h64.59c34.22 0 53.06-14.81 53.06-41.71 0-9.06-4.82-23.31-17.56-30.82zm-11.39 30.63c0 13.42-18.45 14.46-24.11 14.46h-35.83v-31.19h36c9.27 0 23.94 4.55 23.94 16.73zm-59.94-43.39v-28h35.83c13.22 0 20.14 7.65 20.14 15.21 0 8.47-6.71 12.76-19.94 12.76z"/>
   <path d="m834 119.14h-28.1l-62.9 140.15h22.26a13.57 13.57 0 0 0 12.35-8l8.89-19.81h66.67l9.05 19.88a13.59 13.59 0 0 0 12.33 7.92h22.29zm8 85.29h-44l22-49.53z"/>
   <path d="m167.89 132.67a13.55 13.55 0 0 0 13.54 13.54h28v52.94c0 20.58-11.52 32.87-30.82 32.87l-24.84-0.12h-0.08a13.54 13.54 0 0 0-13.53 13.54v13.85h38.44c35.64 0 59.59-24.17 59.59-60.14v-80h-70.3z"/>
   <path d="m238.22 86.55a16 16 0 0 0-1.36-6.82 19.67 19.67 0 0 0-18.18-12.39 19.34 19.34 0 0 0-8.21 1.82 19.53 19.53 0 0 0 1.15 36 15.88 15.88 0 0 0 5.74 1.07h20.87v-19.13z"/>
  </g>
 </g>
</svg>
