
      
      <svg data-v-0dd9719b="" version="1.0" xmlns="http://www.w3.org/2000/svg" xmlns:xlink="http://www.w3.org/1999/xlink" width="100%" height="100%" viewBox="0 0 340.000000 250.000000" preserveAspectRatio="xMidYMid meet" color-interpolation-filters="sRGB" style="margin: auto;"> <rect data-v-0dd9719b="" x="0" y="0" width="100%" height="100%" fill="#356852" fill-opacity="0" class="background"></rect> <rect data-v-0dd9719b="" x="0" y="0" width="100%" height="100%" fill="url(#watermark)" fill-opacity="1" class="watermarklayer"></rect> <g data-v-0dd9719b="" fill="#ffffff" class="icon-text-wrapper icon-svg-group iconsvg" transform="translate(80.21499633789062,69.32516860961914)"><g class="iconsvg-imagesvg" transform="matrix(1,0,0,1,59.785003662109375,0)" opacity="1"><g><rect fill="#ffffff" fill-opacity="0" stroke-width="2" x="0" y="0" width="60" height="76.7096666964982" class="image-rect"></rect> <svg filter="url(#colors1863620344)" x="0" y="0" width="60" height="76.7096666964982" filtersec="colorsf9916754451" class="image-svg-svg primary" style="overflow: visible;"><svg xmlns="http://www.w3.org/2000/svg" viewBox="0 0 33.43000030517578 42.7400016784668"><title>F</title><g id="944c427c-8c51-4e3a-8fae-909141310efc" data-name="圖層 2"><g id="0d35e69f-9385-4b7a-9eb4-c7fc0305400a" data-name="Layer 1"><path d="M26.23,42.74H0V0H33.43V18.86H31V29.91H26.23ZM6.86,35.88h12.5V23h4.82V20.89H19.36V12h7.2V6.86H6.86Z" fill="#393839"></path></g></g></svg></svg> <defs><filter id="colors1863620344"><feColorMatrix type="matrix" values="0 0 0 0 0.99609375  0 0 0 0 0.99609375  0 0 0 0 0.99609375  0 0 0 1 0" class="icon-fecolormatrix"></feColorMatrix></filter> <filter id="colorsf9916754451"><feColorMatrix type="matrix" values="0 0 0 0 0.99609375  0 0 0 0 0.99609375  0 0 0 0 0.99609375  0 0 0 1 0" class="icon-fecolormatrix"></feColorMatrix></filter> <filter id="colorsb2307376756"><feColorMatrix type="matrix" values="0 0 0 0 0  0 0 0 0 0  0 0 0 0 0  0 0 0 1 0" class="icon-fecolormatrix"></feColorMatrix></filter></defs></g></g> <g transform="translate(0,83.70966339111328)"><g data-gra="path-name" fill-rule="" class="tp-name iconsvg-namesvg" transform="matrix(1,0,0,1,0,0)" opacity="1"><g transform="scale(1)"><g><path d="M11.08-21.9Q10.78-21.6 10.78-20.06L10.78-20.06 10.78-19.68 15.31-19.68 15.31-15.48 10.78-15.48 10.78 0 3.46 0 3.46-15.48 0.26-15.48 0.26-19.29 3.46-19.68 3.46-20.32Q3.46-22.2 3.98-23.91 4.49-25.62 4.92-25.96L4.92-25.96Q6.25-27.08 10.57-27.08L10.57-27.08Q12.92-27.08 15.83-26.73L15.83-26.73Q15.83-26.22 15.68-24.68 15.53-23.14 15.4-22.07L15.4-22.07 13.56-22.12Q11.29-22.12 11.08-21.9L11.08-21.9ZM33.66 0L27.59 0 26.91-2.69Q24.94 0.51 21.43 0.51L21.43 0.51Q18.56 0.51 16.75-1.09 14.93-2.69 14.93-5.6L14.93-5.6Q14.93-7.4 15.98-8.75 17.02-10.1 18.86-10.65L18.86-10.65Q21.26-11.34 26.26-11.42L26.26-11.42Q26.26-14.24 26.01-14.42L26.01-14.42Q25.79-14.59 24.64-14.59L24.64-14.59Q23.91-14.59 22.63-14.5L22.63-14.5Q20.58-14.42 17.07-14.03L17.07-14.03Q16.73-16.34 16.55-18.99L16.55-18.99Q18.82-19.46 21.3-19.78 23.78-20.1 25.75-20.1L25.75-20.1Q29.17-20.1 30.88-18.97 32.6-17.84 33.11-16 33.62-14.16 33.58-11.34L33.58-11.34 33.54-5.05 33.66 0ZM23.91-4.28Q25.02-4.28 26.26-4.71L26.26-4.71 26.26-7.87 25.92-7.87Q22.76-7.87 22.41-7.53L22.41-7.53Q22.2-7.31 22.09-6.89 21.99-6.46 21.99-6.07L21.99-6.07Q21.99-5.05 22.46-4.66 22.93-4.28 23.91-4.28L23.91-4.28ZM37 0L37-25.67 44.32-25.96 44.32 0 37 0ZM48.08 0L48.08-25.67 55.39-25.96 55.39 0 48.08 0ZM72.25-20.1Q75.58-20.1 77.4-18.09 79.22-16.08 79.22-10.99L79.22-10.99Q79.22-7.27 78.47-4.64 77.72-2.01 76.78-1.28L76.78-1.28Q75.67-0.38 73.49 0.04 71.31 0.47 68.53 0.47L68.53 0.47Q66.39 0.47 63.74 0.15 61.08-0.17 58.99-0.86L58.99-0.86 58.99-25.67 66.39-25.96 66.39-21.94Q66.39-21.6 66.37-20.36 66.35-19.12 66.26-18.29 66.17-17.45 66-17.02L66-17.02 66.26-16.73Q67.24-18.22 68.74-19.16 70.24-20.1 72.25-20.1L72.25-20.1ZM71.05-4.66Q71.31-5.09 71.5-6.67 71.69-8.26 71.69-9.71L71.69-9.71Q71.69-11.42 71.54-12.4 71.39-13.39 70.82-13.97 70.24-14.54 69.04-14.54L69.04-14.54Q67.97-14.54 66.3-14.24L66.3-14.24 66.3-4.58Q67.88-4.32 69.6-4.32L69.6-4.32Q70.84-4.32 71.05-4.66L71.05-4.66ZM99.84 0L93.76 0 93.08-2.69Q91.11 0.51 87.6 0.51L87.6 0.51Q84.74 0.51 82.92-1.09 81.1-2.69 81.1-5.6L81.1-5.6Q81.1-7.4 82.15-8.75 83.2-10.1 85.04-10.65L85.04-10.65Q87.43-11.34 92.44-11.42L92.44-11.42Q92.44-14.24 92.18-14.42L92.18-14.42Q91.97-14.59 90.81-14.59L90.81-14.59Q90.09-14.59 88.8-14.5L88.8-14.5Q86.75-14.42 83.24-14.03L83.24-14.03Q82.9-16.34 82.73-18.99L82.73-18.99Q85-19.46 87.48-19.78 89.96-20.1 91.92-20.1L91.92-20.1Q95.35-20.1 97.06-18.97 98.77-17.84 99.28-16 99.8-14.16 99.75-11.34L99.75-11.34 99.71-5.05 99.84 0ZM90.09-4.28Q91.2-4.28 92.44-4.71L92.44-4.71 92.44-7.87 92.1-7.87Q88.93-7.87 88.59-7.53L88.59-7.53Q88.37-7.31 88.27-6.89 88.16-6.46 88.16-6.07L88.16-6.07Q88.16-5.05 88.63-4.66 89.1-4.28 90.09-4.28L90.09-4.28ZM118.96-5.13L119.6-0.6Q116.14 0.56 111.86 0.56L111.86 0.56Q107.07 0.56 104.69-1.86 102.32-4.28 102.32-9.41L102.32-9.41Q102.32-11.93 103-14.39 103.69-16.85 104.46-17.71L104.46-17.71Q105.36-18.69 107.99-19.38 110.62-20.06 113.44-20.06L113.44-20.06Q116.39-20.06 119.39-19.55L119.39-19.55Q119.3-18.48 119.11-17.05 118.92-15.61 118.7-14.5L118.7-14.5Q116.05-14.67 113.7-14.67L113.7-14.67Q111.39-14.67 110.75-14.42L110.75-14.42Q110.4-14.29 110.13-12.66 109.85-11.04 109.85-9.62L109.85-9.62Q109.85-7.74 110.38-6.74 110.92-5.73 112.07-5.35 113.23-4.96 115.19-4.96L115.19-4.96Q116.05-4.96 118.96-5.13L118.96-5.13ZM138.68-7.27L142.96 0 135 0 130.94-8Q130.34-9.24 129.35-9.58L129.35-9.58 129.35 0 122.04 0 122.04-25.67 129.35-25.96 129.35-11.38Q130.38-11.81 131.11-13.13L131.11-13.13 134.74-19.68 142.74-19.72 138.59-13.05Q137.61-11.46 136.45-10.52L136.45-10.52Q137.44-9.45 138.68-7.27L138.68-7.27ZM156.43-5.13Q157.5-5.13 160.41-5.35L160.41-5.35Q160.79-5.35 161.82-5.43L161.82-5.43 162.46-1.03Q159.17 0.51 153.91 0.51L153.91 0.51Q148.99 0.51 146.36-1.97 143.73-4.45 143.73-9.45L143.73-9.45Q143.73-12.02 144.39-14.42 145.05-16.81 145.91-17.75L145.91-17.75Q146.81-18.69 149.24-19.38 151.68-20.06 154.08-20.06L154.08-20.06Q157.93-20.06 159.85-18.69 161.78-17.32 162.38-14.91 162.98-12.49 162.98-8.43L162.98-8.43Q160.07-8.26 157.29-8.26L157.29-8.26 151.21-8.26Q151.21-6.89 151.79-6.2 152.37-5.52 153.44-5.33 154.51-5.13 156.43-5.13L156.43-5.13ZM151.64-14.97Q151.38-14.84 151.25-13.86 151.13-12.88 151.08-11.63L151.08-11.63 153.31-11.63Q155.32-11.63 156.22-11.68L156.22-11.68Q156.22-13.73 155.64-14.59 155.06-15.44 153.65-15.44L153.65-15.44Q152.5-15.44 151.64-14.97L151.64-14.97ZM177.73-20.1Q178.29-20.1 178.91-19.98 179.53-19.85 179.83-19.68L179.83-19.68Q179.83-18.74 179.62-16.58 179.4-14.42 179.23-13.52L179.23-13.52Q178.8-13.56 177.65-13.56L177.65-13.56Q174.95-13.56 172.86-13.26L172.86-13.26 172.86 0 165.54 0 165.54-19.68 171.66-19.68 172.51-16.51 172.56-16.51Q173.8-18.14 175.21-19.12 176.62-20.1 177.73-20.1L177.73-20.1Z" transform="translate(-0.25999999046325684, 27.079999923706055)"></path></g> <!----> <!----> <!----> <!----> <!----> <!----> <!----></g></g> <!----></g></g><defs v-gra="od"></defs></svg>