<?xml version="1.0" encoding="UTF-8"?>
<!-- Generator: Adobe Illustrator 26.2.1, SVG Export Plug-In . SVG Version: 6.00 Build 0)  -->
<svg enable-background="new 0 0 420 84.21" version="1.1" viewBox="0 0 420 84.21" xml:space="preserve" xmlns="http://www.w3.org/2000/svg">
<style type="text/css">
	.st0{fill:url(#SVGID_1_);}
	.st1{fill:#FFFFFF;}
	.st2{fill:url(#SVGID_00000131339305417388271120000018217092070408341679_);}
	.st3{fill:url(#SVGID_00000145030971419430580620000001325360369359562368_);}
	.st4{fill:url(#SVGID_00000104692478768522687690000009890196232022926476_);}
	.st5{fill:url(#SVGID_00000013881076501741937170000010094155060189097876_);}
	.st6{fill:url(#SVGID_00000157271132508515097900000017456199752370449821_);}
	.st7{fill:#44AF35;}
	.st8{fill:#8D1AFF;}
	.st9{fill:#346BFF;}
	.st10{fill:url(#SVGID_00000120526505495399727220000003316689544372404633_);}
	.st11{fill:url(#SVGID_00000122702750762996928400000011305899845892572061_);}
	.st12{fill:url(#SVGID_00000065046286767208624150000008623990671691139758_);}
	.st13{fill:url(#SVGID_00000086666710118072713280000015533914722390586277_);}
	.st14{fill:url(#SVGID_00000182521317663254322950000016566417276376942981_);}
</style>
<g id="base" fill="#808080">
	<g fill="#808080">
		<g fill="#808080"><g fill="#999">
			<path class="st1" d="m0 0.44c1.89 0.26 3.79 0.53 5.69 0.79 6.01 25.95 12.05 51.1 18.11 75.57 5.96-24.33 11.9-47.99 17.84-71.07 1.78 0.2 3.56 0.4 5.35 0.59-6.56 25.14-13.13 50.95-19.72 77.58h-7.26c-6.71-26.93-13.38-54.71-20.01-83.46z"/>
			<path class="st1" d="m53.05 6.98c1.9 0.2 3.8 0.4 5.71 0.59 0.06 25.41 0.12 50.83 0.18 76.24h-5.72c-0.06-25.61-0.12-51.22-0.17-76.83z"/>
			<path class="st1" d="m67.79 8.46c12.25 1.17 24.51 2.19 36.78 3.05 0 1.45 0.01 2.89 0.01 4.34-10.36-0.69-20.72-1.48-31.07-2.37 0.03 9.83 0.05 19.67 0.08 29.5 8.61 0.43 17.22 0.82 25.83 1.17 0 1.49 0.01 2.98 0.01 4.47-8.61-0.31-17.23-0.66-25.83-1.04 0.03 10.58 0.06 21.16 0.08 31.75 10.36 0.06 20.72 0.12 31.07 0.16 0 1.45 0.01 2.89 0.01 4.34-12.26 0-24.53-0.01-36.79-0.02-0.05-25.11-0.12-50.23-0.18-75.35z"/>
			<path class="st1" d="m129.5 17.31c-6.08-0.31-12.16-0.65-18.24-1.03 0-1.44-0.01-2.87-0.01-4.31 13.98 0.92 27.97 1.65 41.97 2.18 0 1.39 0.01 2.79 0.01 4.18-6.04-0.22-12.08-0.47-18.13-0.75 0.05 22.09 0.1 44.17 0.15 66.26h-5.6c-0.05-22.18-0.1-44.35-0.15-66.53z"/>
			<path class="st1" d="m160.53 14.05c11.08 0.37 22.16 0.61 33.25 0.73 0 3.51 0 7.01 0.01 10.52-6.82-0.06-13.64-0.17-20.45-0.31l0.03 21.15c5.11 0.07 10.22 0.12 15.33 0.16 0 3.51 0.01 7.02 0.01 10.53-5.11-0.03-10.22-0.07-15.32-0.12 0.01 5.64 0.01 11.28 0.02 16.92 6.81 0.03 13.61 0.04 20.42 0.06 0 3.51 0 7.01 0.01 10.52h-33.17c-0.06-23.39-0.1-46.78-0.14-70.16z"/>
			<path class="st1" d="m270.41 13.64c5.73-0.23 10.56 1.21 14.51 4.39 3.94 3.18 5.91 7.18 5.9 11.98-0.02 6.5-0.03 13.01-0.05 19.51-0.01 4.8-2.01 8.94-6 12.37s-8.81 5.15-14.46 5.21c-2.55 0.03-5.11 0.05-7.66 0.07l-0.03 17.04h-12.76c0.03-23.29 0.06-46.58 0.1-69.87 6.81-0.19 13.63-0.42 20.45-0.7zm-0.09 42.77c2.11-0.03 3.92-0.69 5.42-1.98s2.25-2.82 2.26-4.6c0.01-6.45 0.03-12.89 0.04-19.34 0-1.77-0.72-3.27-2.19-4.47-1.46-1.2-3.29-1.77-5.47-1.69-2.56 0.09-5.11 0.17-7.67 0.25-0.02 10.65-0.04 21.29-0.06 31.94 2.57-0.03 5.12-0.07 7.67-0.11z"/>
			<path class="st1" d="m297.5 12.3c11.07-0.65 22.13-1.43 33.19-2.32l-0.03 11.25c-6.8 0.47-13.61 0.9-20.42 1.29-0.02 7.34-0.04 14.69-0.06 22.03 5.11-0.19 10.21-0.39 15.31-0.61-0.01 3.73-0.02 7.46-0.03 11.18-5.1 0.16-10.21 0.3-15.31 0.44-0.02 5.88-0.03 11.75-0.05 17.63 6.81-0.07 13.61-0.15 20.41-0.23l-0.03 11.25h-33.17c0.07-23.97 0.13-47.94 0.19-71.91z"/>
			<path class="st1" d="m358.23 7.48c5.71-0.57 10.52 0.73 14.46 4.03 3.93 3.29 5.89 7.63 5.88 12.92-0.01 7.17-0.03 14.35-0.04 21.52-0.01 5.29-1.99 9.89-5.94 13.69-0.55 0.53-1.12 1.02-1.74 1.48 2.7 7.61 5.41 15.3 8.12 23.09h-13.78c-1.96-6.26-3.92-12.47-5.87-18.63l-8.88 0.21c-0.02 6.14-0.03 12.28-0.05 18.42h-12.76c0.07-24.94 0.13-49.89 0.2-74.83 6.81-0.59 13.6-1.22 20.4-1.9zm-0.11 46.5c2.11-0.08 3.91-0.84 5.41-2.28s2.25-3.14 2.25-5.08c0.02-7.05 0.03-14.09 0.05-21.14 0.01-1.94-0.72-3.54-2.18-4.79s-3.27-1.77-5.45-1.59c-2.55 0.22-5.1 0.43-7.65 0.63-0.03 11.51-0.06 23.02-0.09 34.54 2.56-0.09 5.11-0.19 7.66-0.29z"/>
			<path class="st1" d="m420 0v12.76c-4.24 0.51-8.47 1.01-12.71 1.49-0.02 23.32-0.03 46.64-0.05 69.96h-12.76c0.03-22.86 0.06-45.71 0.09-68.57-4.24 0.45-8.48 0.88-12.73 1.3 0.01-4 0.01-8.01 0.02-12.01 12.73-1.48 25.45-3.12 38.14-4.93z"/>
			</g><linearGradient id="SVGID_1_" x1="249.22" x2="224.04" y1="27.013" y2="27.013" gradientUnits="userSpaceOnUse">
				<stop stop-color="#346BFF" offset="0"/>
				<stop stop-color="#3669FF" offset=".0164"/>
				<stop stop-color="#5C47FF" offset=".3079"/>
				<stop stop-color="#772EFF" offset=".5782"/>
				<stop stop-color="#871FFF" offset=".8173"/>
				<stop stop-color="#8D1AFF" offset="1"/>
			</linearGradient>
			<path class="st0" d="m227.73 49.61c6.9-14.73 21.49-45.2 21.49-45.2h-12.93s-8.16 17.55-12.24 26.3l3.68 18.9z" fill="#808080"/>
			
				<path class="st1" d="m227.85 49.87-0.11-0.23c0-0.01-0.01-0.02-0.01-0.03l-6.33-13.34c-3.44-7.13-6.88-14.26-10.33-21.4-4.26 0-8.53-0.01-12.79-0.05 5.56 11.65 11.12 23.25 16.67 34.84-5.52 11.52-11.03 23.02-16.54 34.55h12.76c3.4-7.09 6.81-14.18 10.22-21.28 3.37 7.08 6.73 14.17 10.09 21.28h12.76c-5.45-11.5-10.92-22.93-16.39-34.34z" fill="#999"/>
			
		</g>
	</g>
</g>

</svg>
